<svg viewBox="0 0 434.96 413.7" xmlns="http://www.w3.org/2000/svg">
  <path class="geometry-left-top" d="m.18 94.59c0-2.19 0-4.38 0-6.56 0-1-.18-2-.14-3 .1-3 .22-6 .42-8.92q.24-3.84.68-7.66a16.36 16.36 0 0 1 .78-3c.86-2.73 1.74-5.47 2.68-8.19a19.46 19.46 0 0 1 1.06-1.94c.57-1.22 1-2.52 1.66-3.7 1-1.84 2.21-3.6 3.34-5.4s2-3.45 3.25-5c1.34-1.77 2.93-3.36 4.38-5.06.59-.7 1-1.52 1.67-2.19 3.26-3.49 6.43-7.06 10.31-9.94 2.33-1.73 4.72-3.43 6.88-5.36a37.71 37.71 0 0 1 9.08-5.52c4.19-2 8.48-3.87 12.79-5.64a85.71 85.71 0 0 1 9.07-3.22 61.65 61.65 0 0 1 10.66-1.99 88.56 88.56 0 0 1 13.51-.66c2.94.14 5.88.46 8.82.8 2 .23 4 .59 6 1 .82.16 1.58.56 2.39.8 2.54.75 5.12 1.42 7.64 2.24 2.77.91 5.5 1.92 8.23 2.94a82.62 82.62 0 0 1 7.76 3c3.63 1.77 7.14 3.79 10.66 5.76a36.68 36.68 0 0 1 4.61 2.93c2.08 1.61 4 3.35 6 5.12a43.08 43.08 0 0 1 4.14 4.19c1.15 1.39 2 3 3.05 4.47s2 2.66 2.89 4.06c.58.9.83 2 1.47 2.85 1.1 1.43 1.65 3.2 2.68 4.54a30.8 30.8 0 0 1 3.52 5.89 50.78 50.78 0 0 1 2.67 6.77 65.7 65.7 0 0 1 2 8.4c.64 3.91 1.14 7.85 1.43 11.8.18 2.58-.13 5.18-.2 7.78s.07 5.15-.19 7.7a97 97 0 0 1 -1.57 10.32c-.8 3.82-1.81 7.61-2.94 11.35a35.51 35.51 0 0 1 -4.1 9c-1.33 2.06-2.4 4.28-3.87 6.23-2.69 3.59-5.56 7.06-8.42 10.53-.77.93-2 1.57-2.57 2.58a12.14 12.14 0 0 1 -3.13 3.14c-2.2 1.87-4.27 3.89-6.41 5.83-.68.62-1.47 1.15-2.09 1.83-1.9 2.06-4.73 2.76-6.84 4.59-1.37 1.2-3.48 1.58-5.25 2.33s-3.32 1.47-5 2.13a49.79 49.79 0 0 1 -6 2.16c-3.6.88-7.28 1.44-10.89 2.28a86.38 86.38 0 0 1 -13.68 1.87 7.85 7.85 0 0 0 -3.86 1.65 4.94 4.94 0 0 1 -3.44.75c-4-.19-8.08-.33-12.07-.87a97.07 97.07 0 0 1 -25.17-6.77c-3.28-1.39-6.79-2.32-10-3.88a35.81 35.81 0 0 1 -7.27-4.84 107.17 107.17 0 0 1 -8.37-8c-2.46-2.58-4.77-5.31-7-8.08-1.71-2.09-3.21-4.35-4.8-6.53a43.89 43.89 0 0 1 -3-4.21c-1.63-2.91-3.22-5.86-4.57-8.91a68.37 68.37 0 0 1 -2.72-7.79 33.83 33.83 0 0 1 -.93-4.69c-.61-4-1.17-8.1-1.74-12.15-.13-.62-.13-1.28-.13-1.94z" fill="#c7161d"/>
  <path class="geometry-left-bottom" d="m126.67 411c-4.31.25-8.62.53-12.93.74-3 .15-6.06.2-9.09.31-1.89.07-3.78.23-5.67.27-3.6.08-7.21 0-10.81.18-3.85.14-7.69.48-11.54.65-1.37.06-2.76-.17-4.14-.21-1.93-.06-3.86-.14-5.79-.09-3.27.07-6.55.21-9.82.35-2.92.13-5.84.33-8.76.44a21.72 21.72 0 0 1 -3.87-.11 38.75 38.75 0 0 0 -8.81.11 20.12 20.12 0 0 1 -5.21-.75 4.84 4.84 0 0 1 -1.94-.69c-.92-.7-2.07-1.45-2.44-2.42a9.92 9.92 0 0 1 0-7.27 45.94 45.94 0 0 1 2.36-4.12c2.49-4.77 5-9.54 7.36-14.36 1.89-3.82 3.52-7.77 5.42-11.59 1.8-3.63 3.8-7.16 5.69-10.74 1.81-3.42 3.56-6.86 5.41-10.25 2.34-4.29 4.87-8.5 7.14-12.84 2.64-5.05 5.07-10.2 7.63-15.29 1.69-3.36 3.44-6.69 5.18-10 1.15-2.19 2.37-4.35 3.49-6.55 1.53-3 3-6 4.49-9 1.63-3.18 3.31-6.34 4.94-9.51.36-.68.57-1.43.92-2.12.91-1.76 1.87-3.49 2.79-5.24 2.43-4.61 4.84-9.22 7.28-13.82 1.14-2.16 2.36-4.28 3.49-6.45 1.75-3.38 3.42-6.81 5.17-10.19.77-1.48 1.65-2.9 2.49-4.34q1.94-3.33 3.9-6.64c1-1.75 2.12-3.48 3.15-5.23.9-1.55 1.7-3.16 2.65-4.68s2-2.74 2.9-4.13c2.42-3.6 4.83-7.19 7.2-10.82 1.67-2.55 3.16-5.22 4.94-7.7 1.17-1.63 2.91-2.89 4.07-4.53 1.88-2.66 3.38-5.58 5.27-8.23a30.28 30.28 0 0 1 5.28-6.05 6.87 6.87 0 0 1 6-1.33c1.71.43 3.53.6 4.62 2.24a18.89 18.89 0 0 1 2.18 3.41 47 47 0 0 1 2.56 8.18c.86 4.83 1.36 9.72 1.93 14.6.47 4.1.8 8.22 1.24 12.32.47 4.4 1 8.79 1.5 13.18.49 3.94 1.08 7.87 1.58 11.81.31 2.41.48 4.83.79 7.24.16 1.2.52 2.37.73 3.57.89 5.22 1.85 10.44 2.62 15.68.45 3.11.58 6.28.89 9.41s.68 6.27 1 9.41c.46 4.41 1 8.81 1.34 13.22.47 5.91.79 11.84 1.21 17.75.25 3.63.65 7.25.86 10.89.21 3.43.17 6.88.41 10.31.21 2.8.74 5.57 1 8.37.25 2.59.3 5.19.5 7.78.25 3.15.59 6.29.85 9.44.42 5.09.87 10.18 1.2 15.28.19 3 .26 5.94.21 8.91 0 .93-.76 1.83-.89 2.78-.35 2.48-2.85 3.26-4.11 5-.54.77-2.14.92-3.3 1.17-2.6.57-5.22 1.06-7.84 1.51a11.09 11.09 0 0 1 -2.23 0c-3.58-.14-7.15-.36-10.73-.41-2 0-4.07.3-6.12.36-4.42.13-8.85.15-13.28.31-2.18.08-4.36.39-6.54.59z" fill="#0f367a"/>
  <path class="geometry-right-bottom" d="m425.2 240.4a10.16 10.16 0 0 1 1.56 0 4 4 0 0 1 1.19.4 46.44 46.44 0 0 1 4.44 2.13 4.12 4.12 0 0 1 1.86 3.32c.25 3.06.52 6.14.58 9.21.1 5.65.22 11.31 0 16.95-.19 5.89-.75 11.76-1.1 17.65-.49 8.21-1 16.42-1.37 24.64-.2 5 0 9.94-.07 14.91 0 4.34-.14 8.69-.23 13-.06 2.5-.17 5-.24 7.51-.08 3.14-.23 6.28-.21 9.42 0 3.58.24 7.17.31 10.76 0 1.53-.21 3.07-.15 4.6s.39 3.12.54 4.68c.13 1.33.2 2.67.26 4 .15 3.3.29 6.61.43 9.91a1.87 1.87 0 0 1 0 .71c-.79 2 .15 3.94 0 5.91a3.07 3.07 0 0 1 -.43 1.51 13.81 13.81 0 0 1 -2.12 2.78 5.48 5.48 0 0 1 -2.63 1.46c-3.74.59-7.5 1.14-11.27 1.42-3.27.25-6.56.1-9.84.17-3.61.08-7.21.22-10.81.31-.72 0-1.44-.1-2.16-.1-5 0-10 0-15 .06-1.92 0-3.83.27-5.74.34-1.48.05-3-.06-4.46 0-4.06.09-8.12.26-12.19.31-1.76 0-3.53-.23-5.29-.24-3 0-5.93-.55-9-.21a60.22 60.22 0 0 1 -8.28 0c-4.69-.13-9.37-.37-14.06-.44-4.16-.07-8.32.13-12.48.06-3.78-.06-7.56-.4-11.34-.48-2 0-4.06.22-6.1.3-1 0-1.92 0-2.88 0s-1.75.17-2.62.16c-2.85 0-5.71-.32-8.53-.07a24.23 24.23 0 0 1 -6.55-.68 3 3 0 0 1 -2.33-1.72 9.08 9.08 0 0 1 -1-6 27 27 0 0 0 -.09-4c0-4.53 0-9.07 0-13.6 0-3.63-.17-7.26-.28-10.89 0-1.41-.14-2.83-.18-4.24-.13-5.16-.2-10.33-.39-15.49-.15-4.26-.44-8.51-.66-12.76a5.81 5.81 0 0 1 0-.83 107.61 107.61 0 0 0 0-13.91c-.09-2.24 0-4.49.08-6.73.16-6.14.27-12.29.53-18.42.31-7.26.75-14.52 1.15-21.78q.22-3.94.51-7.89c.15-2.23.43-4.45.49-6.68 0-1.52-.31-3-.34-4.56 0-1.93-.58-4.09 1.18-5.52.95-.78 1.67-2.1 3.2-2.09h1.36a58.43 58.43 0 0 0 11.12-1c3.14-.54 6.32-.92 9.49-1.31 2.34-.28 4.7-.49 7.05-.71 2.93-.29 5.86-.56 8.79-.83 1.79-.17 3.59-.29 5.38-.5 3-.35 5.91-.78 8.87-1.11.83-.1 1.7.11 2.54 0 1.17-.11 2.33-.49 3.51-.54 3.55-.16 7.12-.16 10.67-.32 4.76-.21 9.52-.49 14.27-.79 2.66-.16 5.31-.44 8-.61 1.22-.07 2.46 0 3.68 0 5.36-.07 10.72-.16 16.08-.22 1.41 0 2.82.1 4.22.06s2.85-.23 4.28-.26h6.4c3.28 0 6.56-.13 9.85-.18 2.17 0 4.34 0 6.51-.08s4.58-.09 6.88-.12c.8 0 1.61.11 2.39 0a25.09 25.09 0 0 0 2.67-.61z" fill="#f5ab18"/>
  <path class="geometry-right-top" d="m269 203.46a13.19 13.19 0 0 1 -8-1.66 3.78 3.78 0 0 1 -1.8-2.43 7.53 7.53 0 0 0 -1-1.63c-.46-.75-1.24-1.49-1.28-2.27-.17-3 0-6-.12-9-.1-3.63-.41-7.25-.42-10.88 0-7.08.07-14.15.11-21.23.05-7.86 0-15.71.15-23.56.1-7.55.4-15.1.5-22.65.09-6.64-.05-13.27.06-19.91.08-4.63.4-9.27.62-13.9.19-4.12.39-8.24.56-12.36.24-5.75.45-11.51.71-17.25.19-4.22.36-8.44.68-12.64.38-5.17.64-10.36 1.49-15.46.51-3.09 2.71-5.52 5.53-7.21a37.44 37.44 0 0 1 11.16-4.29c8.92-2 18-2.82 27.06-3.54 4.72-.38 9.45-.61 14.17-.89 3-.18 5.9-.4 8.85-.47 3.74-.1 7.48 0 11.22-.08 4.57 0 9.15-.17 13.72-.13 4.23 0 8.47.21 12.7.35 3.77.12 7.54.23 11.3.42 4.82.25 9.62.56 14.43.88 3.27.23 6.53.59 9.8.79a15.94 15.94 0 0 1 6.62 2.35 2.56 2.56 0 0 1 1.18 1.31c1.3 4.34 2.35 8.74 1.1 13.24a93.59 93.59 0 0 1 -3.84 11.85c-1.57 3.67-3.82 7-5.76 10.57-1.08 1.95-2.09 3.94-3.22 5.87s-2.3 3.69-3.47 5.53-2.32 3.67-3.52 5.48c-1.43 2.16-2.91 4.3-4.36 6.45-1.8 2.66-3.64 5.29-5.36 8-1.55 2.43-2.92 5-4.42 7.4-.58.93-1.34 1.75-2 2.65s-1.45 2.16-2.23 3.2c-1.49 2-3.08 4-4.52 6-2 2.89-3.93 5.86-5.94 8.76s-3.84 5.5-5.85 8.18c-2.7 3.61-5.55 7.12-8.22 10.74-2.11 2.88-4 5.92-6.11 8.81-1.5 2.06-3.22 4-4.76 6-2.9 3.83-5.67 7.75-8.63 11.53-3.89 4.91-7.89 9.72-11.8 14.62-2.07 2.57-4 5.24-6.18 7.73-4 4.6-8.15 9.07-12.2 13.62-2.26 2.54-4.37 5.22-6.72 7.68-2.13 2.22-4.47 4.27-6.79 6.31-1.86 1.64-3.92 3.06-5.71 4.76s-4.08 2.2-6.45 2.38c-1.18.06-2.37-.02-3.04-.02z"/>
</svg>
